<svg width="126" height="44" viewBox="0 0 126 44" fill="none" xmlns="http://www.w3.org/2000/svg">
<g clip-path="url(#clip0_257_14480)">
<path d="M22.77 44C35.0694 44 45.04 34.1503 45.04 22C45.04 9.84974 35.0694 0 22.77 0C10.4706 0 0.5 9.84974 0.5 22C0.5 34.1503 10.4706 44 22.77 44Z" fill="#ED184F"/>
<path d="M23.6755 7.21143C26.5127 7.21143 28.9342 8.07676 30.937 9.80889C32.9398 8.07676 35.3198 7.21143 38.0738 7.21143C41.5791 7.21143 44.3332 8.44783 46.3375 10.9221C47.9231 12.8185 48.6743 14.9628 48.5912 17.3534V33.3078C48.5912 34.5442 48.0478 35.4932 46.964 36.1532C45.8787 36.8117 44.7518 36.8117 43.5834 36.1532C42.4981 35.4946 41.9562 34.5457 41.9562 33.3078V17.3534C41.7053 15.5817 41.0372 14.4685 39.9534 14.0138C39.5362 13.8496 38.9097 13.766 38.0753 13.766C36.4882 13.766 35.446 14.1781 34.9456 15.0024C34.5284 15.7445 34.2775 16.5277 34.1944 17.352V24.216C34.1944 25.4524 33.651 26.4013 32.5672 27.0613C31.4819 27.7213 30.355 27.7213 29.1866 27.0613C28.1013 26.4849 27.5594 25.536 27.5594 24.216V17.352C27.3085 15.5802 26.6404 14.467 25.5566 14.0124C25.1394 13.8481 24.5129 13.7645 23.6785 13.7645C22.176 13.7645 21.1739 14.1766 20.6735 15.0009C20.1732 15.8662 19.8807 16.6509 19.7976 17.3505V33.3078C19.8807 34.5442 19.3373 35.4932 18.1704 36.1532C17.0851 36.8117 15.9582 36.8117 14.7898 36.1532C13.7045 35.4946 13.1626 34.5457 13.1626 33.3078V17.3534C13.4966 12.2421 15.8335 9.02569 20.1732 7.70569C21.2555 7.37716 22.4239 7.21143 23.6755 7.21143Z" fill="white"/>
<path d="M55.1848 12.3203H48.4741V33.4506H55.1848V12.3203Z" fill="#ED184F"/>
<path d="M51.8339 15.5791C53.6895 15.5791 55.1937 14.0931 55.1937 12.26C55.1937 10.4269 53.6895 8.94092 51.8339 8.94092C49.9784 8.94092 48.4741 10.4269 48.4741 12.26C48.4741 14.0931 49.9784 15.5791 51.8339 15.5791Z" fill="#ED184F"/>
<path d="M51.8339 7.36567C53.6895 7.36567 55.1937 5.87968 55.1937 4.04661C55.1937 2.21354 53.6895 0.727539 51.8339 0.727539C49.9784 0.727539 48.4741 2.21354 48.4741 4.04661C48.4741 5.87968 49.9784 7.36567 51.8339 7.36567Z" fill="#ED184F"/>
<path d="M51.8339 36.6992C53.6895 36.6992 55.1937 35.2132 55.1937 33.3801C55.1937 31.547 53.6895 30.061 51.8339 30.061C49.9784 30.061 48.4741 31.547 48.4741 33.3801C48.4741 35.2132 49.9784 36.6992 51.8339 36.6992Z" fill="#ED184F"/>
<path d="M78.5595 21.6891C78.0755 21.6891 77.6821 21.3019 77.6821 20.8222V14.011C77.6821 13.046 77.394 12.2129 76.8388 11.5324C76.2835 10.8518 75.5293 10.5013 74.6177 10.5013C73.6854 10.5013 72.8851 10.8078 72.1977 11.4004C71.5311 11.9929 71.1985 12.738 71.1985 13.6385V16.412C71.1985 16.896 70.8006 17.289 70.3107 17.289C69.8208 17.289 69.4229 16.896 69.4229 16.412V13.6385C69.4229 12.7394 69.0903 11.9929 68.4014 11.4004C67.7348 10.8078 66.9361 10.5013 66.0037 10.5013C65.0936 10.5013 64.3602 10.8518 63.8049 11.5324C63.2496 12.2129 62.9839 13.024 62.9839 14.011V20.8222C62.9839 21.3004 62.5919 21.6891 62.1064 21.6891C61.6224 21.6891 61.229 21.3019 61.229 20.8222V14.209C61.229 12.6514 61.6729 11.3798 62.583 10.4353C63.4263 9.53625 64.5368 9.03172 65.9131 8.92172C67.7556 8.76772 69.2224 9.55825 70.3092 11.2464C71.3975 9.55678 72.8628 8.76772 74.7053 8.92172C76.0816 9.03172 77.1921 9.53625 78.0577 10.4353C78.9678 11.3784 79.434 12.6514 79.434 14.209V20.8222C79.4369 21.3019 79.045 21.6891 78.5595 21.6891Z" fill="#121212"/>
<path d="M82.0917 21.6889C81.6314 21.6889 81.2588 21.3207 81.2588 20.8661V10.0083C81.2588 9.55368 81.6314 9.18555 82.0917 9.18555C82.5519 9.18555 82.9246 9.55368 82.9246 10.0083V20.8675C82.9246 21.3207 82.5519 21.6889 82.0917 21.6889Z" fill="#121212"/>
<path d="M95.1047 21.6887C94.6325 21.6887 94.2495 21.3103 94.2495 20.8439V14.3847C94.2495 13.3317 93.8501 12.4326 93.0721 11.6641C92.2957 10.8955 91.4064 10.523 90.3626 10.523C89.3189 10.523 88.3865 10.8955 87.6086 11.6641C86.8306 12.4311 86.4535 13.3317 86.4535 14.3847V20.8454C86.4535 21.3118 86.0705 21.6902 85.5983 21.6902C85.1262 21.6902 84.7432 21.3118 84.7432 20.8454V14.5593C84.7432 12.9357 85.2762 11.5981 86.3422 10.523C87.4081 9.44795 88.7399 8.89941 90.3611 8.89941C91.9601 8.89941 93.2919 9.44795 94.3579 10.523C95.4239 11.5981 95.9569 12.9357 95.9569 14.5593V20.8439C95.9598 21.3103 95.5768 21.6887 95.1047 21.6887Z" fill="#121212"/>
<path d="M110.992 15.5025C111.037 17.3006 110.392 18.8582 109.038 20.1753C107.684 21.4689 106.108 22.1054 104.286 22.0394C102.531 21.9954 101.021 21.3369 99.8007 20.0653C98.5788 18.7937 97.9805 17.2801 97.9805 15.5245C97.9805 13.7043 98.6471 12.1247 99.9566 10.8297C101.266 9.51408 102.843 8.87755 104.664 8.94355C106.529 9.00955 108.084 9.75461 109.328 11.1597V5.68608C109.328 5.23141 109.7 4.86328 110.161 4.86328C110.621 4.86328 110.994 5.23141 110.994 5.68608V15.5025H110.992ZM104.31 20.3953C105.708 20.4613 106.885 20.0007 107.862 18.9697C108.862 17.9386 109.328 16.7535 109.283 15.3719C109.261 14.0563 108.773 12.9373 107.862 11.9942C106.952 11.0511 105.864 10.5906 104.553 10.5906C103.221 10.5686 102.066 11.0511 101.112 11.9942C100.157 12.9373 99.6908 14.0563 99.6685 15.3939C99.6463 16.7095 100.09 17.8726 101 18.8597C101.91 19.8467 102.999 20.3513 104.31 20.3953Z" fill="#121212"/>
<path d="M61.7991 36.6698C61.4844 36.6698 61.229 36.4175 61.229 36.1066V25.9719C61.229 25.661 61.4844 25.4087 61.7991 25.4087C62.1139 25.4087 62.3692 25.661 62.3692 25.9719V36.1066C62.3692 36.4175 62.1139 36.6698 61.7991 36.6698Z" fill="#121212"/>
<path d="M70.5185 36.6698C70.2038 36.6698 69.9484 36.4175 69.9484 36.1066V31.799C69.9484 31.0964 69.6826 30.4966 69.163 29.9847C68.6434 29.4728 68.0525 29.2235 67.3562 29.2235C66.6599 29.2235 66.0393 29.4728 65.5211 29.9847C65.003 30.4966 64.7506 31.0964 64.7506 31.799V36.1066C64.7506 36.4175 64.4952 36.6698 64.1805 36.6698C63.8657 36.6698 63.6104 36.4175 63.6104 36.1066V31.9163C63.6104 30.8339 63.9652 29.9422 64.6763 29.225C65.3875 28.5078 66.2753 28.1426 67.3562 28.1426C68.4222 28.1426 69.31 28.5078 70.0211 29.225C70.7323 29.9422 71.0871 30.8339 71.0871 31.9163V36.1066C71.0886 36.4175 70.8333 36.6698 70.5185 36.6698Z" fill="#121212"/>
<path d="M76.3236 36.6695C75.9688 36.6695 75.6496 36.4583 75.5145 36.1327L72.5837 29.0795C72.4353 28.7231 72.701 28.333 73.0915 28.333C73.3142 28.333 73.5132 28.465 73.5978 28.6674L76.3296 35.2058L79.0406 28.6835C79.1282 28.4709 79.3375 28.333 79.5706 28.333C79.9789 28.333 80.2565 28.7437 80.0991 29.1162L77.1313 36.1371C76.9947 36.4598 76.677 36.6695 76.3236 36.6695Z" fill="#121212"/>
<path d="M89.0412 33.9345C89.4688 33.9345 89.7405 34.3936 89.5237 34.7588C89.2179 35.278 88.8111 35.7165 88.3048 36.0685C87.5506 36.595 86.7207 36.8576 85.8032 36.8722C84.6481 36.8869 83.6266 36.4777 82.7388 35.6285C81.851 34.7661 81.3922 33.757 81.3774 32.572C81.3477 31.3282 81.7916 30.2473 82.7091 29.3541C83.6415 28.4477 84.7223 28.0238 85.9813 28.0957C87.1067 28.169 88.0836 28.6222 88.9121 29.47C89.7108 30.303 90.1117 31.2402 90.1117 32.2786V32.8785H82.5324C82.6215 33.7116 82.9764 34.4141 83.6133 34.9553C84.2502 35.4965 84.9896 35.7737 85.8492 35.759C87.0726 35.7458 87.9723 35.2266 88.5587 34.2117C88.6567 34.043 88.8408 33.9345 89.0412 33.9345ZM89.0011 31.8577C88.8378 31.0818 88.4681 30.4541 87.8906 29.9716C87.3131 29.489 86.6168 29.2397 85.8032 29.225C84.9896 29.2104 84.2784 29.4597 83.6712 29.9422C83.064 30.4248 82.6943 31.0686 82.531 31.8577H89.0011Z" fill="#121212"/>
<path d="M97.9951 36.6698C97.6803 36.6698 97.425 36.4175 97.425 36.1066V31.799C97.425 31.0964 97.1592 30.4966 96.6396 29.9847C96.1199 29.4728 95.529 29.2235 94.8327 29.2235C94.1364 29.2235 93.5158 29.4728 92.9977 29.9847C92.4795 30.4966 92.2271 31.0964 92.2271 31.799V36.1066C92.2271 36.4175 91.9718 36.6698 91.657 36.6698C91.3423 36.6698 91.0869 36.4175 91.0869 36.1066V31.9163C91.0869 30.8339 91.4417 29.9422 92.1529 29.225C92.8641 28.5078 93.7519 28.1426 94.8327 28.1426C95.8987 28.1426 96.7865 28.5078 97.4977 29.225C98.2089 29.9422 98.5637 30.8339 98.5637 31.9163V36.1066C98.5652 36.4175 98.3098 36.6698 97.9951 36.6698Z" fill="#121212"/>
<path d="M102.829 36.3618C102.829 36.6346 102.593 36.8487 102.318 36.8267C100.602 36.6903 99.75 35.8338 99.75 34.2571V25.9719C99.75 25.661 100.005 25.4087 100.32 25.4087C100.635 25.4087 100.89 25.661 100.89 25.9719V28.3186H102.304C102.595 28.3186 102.829 28.5503 102.829 28.8378C102.829 29.1252 102.595 29.357 102.304 29.357H100.89V34.0664C100.89 35.1664 101.401 35.7736 102.411 35.8998C102.648 35.9291 102.829 36.1242 102.829 36.3618Z" fill="#121212"/>
<path d="M111.163 35.6167C110.29 36.4791 109.239 36.9044 108.024 36.8604C106.854 36.8311 105.848 36.3926 105.034 35.5448C104.221 34.6971 103.82 33.688 103.82 32.5176C103.82 31.3032 104.264 30.2502 105.138 29.3878C106.011 28.5107 107.062 28.0868 108.277 28.1294C109.447 28.1734 110.453 28.6119 111.267 29.4743C112.081 30.322 112.496 31.3311 112.496 32.5015C112.496 33.7012 112.052 34.7396 111.163 35.6167ZM108.039 35.7634C108.972 35.8074 109.757 35.5008 110.409 34.813C111.075 34.1251 111.386 33.336 111.371 32.415C111.341 31.5379 111.016 30.7914 110.409 30.1622C109.802 29.533 109.077 29.2264 108.217 29.2264C107.315 29.2118 106.559 29.533 105.922 30.1622C105.285 30.7914 104.975 31.5364 104.96 32.4296C104.945 33.3067 105.226 34.0826 105.833 34.7396C106.44 35.3982 107.166 35.734 108.039 35.7634Z" fill="#121212"/>
<path d="M114.207 36.6698H114.073C113.782 36.6698 113.547 36.4381 113.547 36.1506V28.8525C113.547 28.565 113.782 28.3333 114.073 28.3333C114.364 28.3333 114.599 28.565 114.599 28.8525V29.5184C114.836 29.0652 115.191 28.7293 115.65 28.48C115.849 28.3788 116.048 28.301 116.248 28.2497C116.604 28.1588 116.952 28.4184 116.952 28.7821C116.952 29.0446 116.771 29.2808 116.509 29.3321C116.184 29.3966 115.907 29.5242 115.678 29.7076C115.353 29.9701 115.13 30.2048 115.011 30.3954C114.818 30.7166 114.731 31.142 114.731 31.6832V36.1506C114.732 36.4381 114.496 36.6698 114.207 36.6698Z" fill="#121212"/>
<path d="M120.616 39.5794C120.215 39.5794 119.94 39.1805 120.087 38.8109L121.052 36.4055L118.133 29.1059C117.985 28.7349 118.262 28.333 118.666 28.333C118.899 28.333 119.11 28.4738 119.198 28.6879L121.748 34.9433L124.449 28.6615C124.535 28.4621 124.733 28.333 124.952 28.333C125.343 28.333 125.607 28.7261 125.457 29.0825L121.14 39.2362C121.051 39.4445 120.844 39.5794 120.616 39.5794Z" fill="#121212"/>
<path d="M82.0867 6.50887C82.5434 6.50887 82.9137 6.14311 82.9137 5.69193C82.9137 5.24075 82.5434 4.875 82.0867 4.875C81.63 4.875 81.2598 5.24075 81.2598 5.69193C81.2598 6.14311 81.63 6.50887 82.0867 6.50887Z" fill="#121212"/>
</g>
<defs>
<clipPath id="clip0_257_14480">
<rect width="125" height="44" fill="white" transform="translate(0.5)"/>
</clipPath>
</defs>
</svg>
